<svg width="386" height="104" viewBox="0 0 386 104" fill="none" xmlns="http://www.w3.org/2000/svg">
<path d="M68.3174 0.769137H81.1363C85.9905 0.769137 89.7165 1.86302 92.3145 4.05079C94.9466 6.23856 96.2627 9.36639 96.2627 13.4343C96.2627 17.5022 94.9466 20.6471 92.3145 22.869C89.7165 25.0568 85.9905 26.1507 81.1363 26.1507H79.0853V36.1495H68.3174V0.769137ZM80.88 17.4338C82.2815 17.4338 83.3583 17.0919 84.1103 16.4083C84.8624 15.6904 85.2384 14.6991 85.2384 13.4343C85.2384 12.1695 84.8624 11.1952 84.1103 10.5115C83.3583 9.82787 82.2815 9.48603 80.88 9.48603H79.0853V17.4338H80.88Z" fill="white"/>
<path d="M120.376 36.1495L114.839 26.1507H112.685V36.1495H101.917V0.769137H114.736C119.59 0.769137 123.316 1.86302 125.914 4.05079C128.546 6.23856 129.862 9.36639 129.862 13.4343C129.862 15.9639 129.35 18.1516 128.324 19.9976C127.299 21.8093 125.795 23.228 123.812 24.2535L132.17 36.1495H120.376ZM112.685 17.4338H114.48C115.881 17.4338 116.958 17.0919 117.71 16.4083C118.462 15.6904 118.838 14.6991 118.838 13.4343C118.838 12.1695 118.462 11.1952 117.71 10.5115C116.958 9.82787 115.881 9.48603 114.48 9.48603H112.685V17.4338Z" fill="white"/>
<path d="M136.018 0.769137H146.785V36.1495H136.018V0.769137Z" fill="white"/>
<path d="M154.751 0.769137H167.314L173.467 16.6646H173.98L180.389 0.769137H192.695L193.721 36.1495H182.953L182.44 18.7157H181.927L176.8 30.5091H169.519L164.494 18.7157H163.981L163.468 36.1495H153.726L154.751 0.769137Z" fill="white"/>
<path d="M224.462 27.4326V36.1495H200.363V0.769137H224.206V9.48603H211.131V14.0496H222.155V22.7665H211.131V27.4326H224.462Z" fill="white"/>
<path d="M231.409 0.769137H242.176V36.1495H231.409V0.769137Z" fill="white"/>
<path d="M268.345 36.1495L262.807 26.1507H260.654V36.1495H249.886V0.769137H262.705C267.559 0.769137 271.285 1.86302 273.883 4.05079C276.515 6.23856 277.831 9.36639 277.831 13.4343C277.831 15.9639 277.318 18.1516 276.293 19.9976C275.267 21.8093 273.763 23.228 271.781 24.2535L280.139 36.1495H268.345ZM260.654 17.4338H262.448C263.85 17.4338 264.927 17.0919 265.679 16.4083C266.431 15.6904 266.807 14.6991 266.807 13.4343C266.807 12.1695 266.431 11.1952 265.679 10.5115C264.927 9.82787 263.85 9.48603 262.448 9.48603H260.654V17.4338Z" fill="white"/>
<path d="M299.939 36.9186C294.265 36.9186 289.889 35.3461 286.812 32.2012C283.736 29.0221 282.198 24.5098 282.198 18.6644C282.198 12.6822 283.736 8.08449 286.812 4.87121C289.889 1.62374 294.265 0 299.939 0C305.614 0 309.989 1.62374 313.066 4.87121C316.142 8.08449 317.681 12.6822 317.681 18.6644C317.681 24.5098 316.142 29.0221 313.066 32.2012C309.989 35.3461 305.614 36.9186 299.939 36.9186ZM299.939 27.6889C302.161 27.6889 303.836 26.9369 304.964 25.4328C306.092 23.8945 306.656 21.6384 306.656 18.6644C306.656 15.5537 306.092 13.2121 304.964 11.6396C303.836 10.033 302.161 9.22965 299.939 9.22965C297.717 9.22965 296.042 10.033 294.914 11.6396C293.786 13.2121 293.222 15.5537 293.222 18.6644C293.222 21.6384 293.786 23.8945 294.914 25.4328C296.042 26.9369 297.717 27.6889 299.939 27.6889Z" fill="white"/>
<path d="M90.2699 104C83.2485 104 77.8344 102.055 74.0276 98.1632C70.2208 94.2295 68.3174 88.6462 68.3174 81.4132C68.3174 74.0111 70.2208 68.3221 74.0276 64.3461C77.8344 60.3278 83.2485 58.3187 90.2699 58.3187C92.7655 58.3187 95.0919 58.5936 97.249 59.1435C99.4485 59.6511 101.267 60.3701 102.705 61.3007L98.5814 71.6425C95.7898 70.3735 93.2308 69.7391 90.9044 69.7391C84.9404 69.7391 81.9584 73.6305 81.9584 81.4132C81.9584 85.22 82.6563 88.0328 84.0521 89.8517C85.448 91.6705 87.7321 92.5799 90.9044 92.5799C93.6537 92.5799 96.2128 91.9454 98.5814 90.6765L102.705 101.145C100.929 102.076 98.9621 102.774 96.8049 103.239C94.6477 103.746 92.4694 104 90.2699 104Z" fill="white"/>
<path d="M129.119 104C122.097 104 116.683 102.055 112.876 98.1632C109.069 94.2295 107.166 88.6462 107.166 81.4132C107.166 74.0111 109.069 68.3221 112.876 64.3461C116.683 60.3278 122.097 58.3187 129.119 58.3187C136.14 58.3187 141.554 60.3278 145.361 64.3461C149.168 68.3221 151.071 74.0111 151.071 81.4132C151.071 88.6462 149.168 94.2295 145.361 98.1632C141.554 102.055 136.14 104 129.119 104ZM129.119 92.5799C131.868 92.5799 133.941 91.6493 135.336 89.7882C136.732 87.8848 137.43 85.0932 137.43 81.4132C137.43 77.5642 136.732 74.6668 135.336 72.7211C133.941 70.7331 131.868 69.7391 129.119 69.7391C126.369 69.7391 124.297 70.7331 122.901 72.7211C121.505 74.6668 120.807 77.5642 120.807 81.4132C120.807 85.0932 121.505 87.8848 122.901 89.7882C124.297 91.6493 126.369 92.5799 129.119 92.5799ZM128.04 46.5811L140.856 48.2941L131.339 56.4153H123.726L128.04 46.5811Z" fill="white"/>
<path d="M158.699 59.2704H176.464C183.359 59.2704 188.667 61.1738 192.389 64.9806C196.154 68.7451 198.036 74.138 198.036 81.1595C198.036 88.1809 196.154 93.595 192.389 97.4018C188.667 101.166 183.359 103.049 176.464 103.049H158.699V59.2704ZM174.941 92.2626C177.945 92.2626 180.271 91.3109 181.921 89.4075C183.57 87.4618 184.395 84.7125 184.395 81.1595C184.395 77.6065 183.57 74.8782 181.921 72.9748C180.271 71.0291 177.945 70.0563 174.941 70.0563H172.023V92.2626H174.941Z" fill="white"/>
<path d="M205.664 59.2704H218.988V103.049H205.664V59.2704Z" fill="white"/>
<path d="M248.577 104C241.555 104 236.141 102.055 232.334 98.1632C228.528 94.2295 226.624 88.6462 226.624 81.4132C226.624 74.0111 228.528 68.3221 232.334 64.3461C236.141 60.3278 241.555 58.3187 248.577 58.3187C251.072 58.3187 253.399 58.5936 255.556 59.1435C257.713 59.6511 259.532 60.3701 261.012 61.3007L257.84 71.6425C256.275 70.9657 254.837 70.4793 253.526 70.1832C252.257 69.8871 250.818 69.7391 249.211 69.7391C243.247 69.7391 240.265 73.6305 240.265 81.4132C240.265 85.1777 241.005 87.9906 242.486 89.8517C243.966 91.6705 246.208 92.5799 249.211 92.5799C250.226 92.5799 251.241 92.5164 252.257 92.3895C253.272 92.2203 254.033 92.0088 254.541 91.7551V79.2561H266.786V98.3535C264.544 100.172 261.837 101.568 258.665 102.541C255.535 103.514 252.172 104 248.577 104Z" fill="white"/>
<path d="M295.728 104C288.707 104 283.292 102.055 279.486 98.1632C275.679 94.2295 273.775 88.6462 273.775 81.4132C273.775 74.0111 275.679 68.3221 279.486 64.3461C283.292 60.3278 288.707 58.3187 295.728 58.3187C302.749 58.3187 308.163 60.3278 311.97 64.3461C315.777 68.3221 317.68 74.0111 317.68 81.4132C317.68 88.6462 315.777 94.2295 311.97 98.1632C308.163 102.055 302.749 104 295.728 104ZM295.728 92.5799C298.477 92.5799 300.55 91.6493 301.946 89.7882C303.342 87.8848 304.039 85.0932 304.039 81.4132C304.039 77.5642 303.342 74.6668 301.946 72.7211C300.55 70.7331 298.477 69.7391 295.728 69.7391C292.979 69.7391 290.906 70.7331 289.51 72.7211C288.114 74.6668 287.416 77.5642 287.416 81.4132C287.416 85.0932 288.114 87.8848 289.51 89.7882C290.906 91.6493 292.979 92.5799 295.728 92.5799Z" fill="white"/>
<path fill-rule="evenodd" clip-rule="evenodd" d="M0.734375 44.3636L46.8547 24.9502L52.1304 41.3182L24.6373 52.0002L52.1304 62.6823L46.8547 79.0503L0.734375 59.6368V44.3636ZM18.3142 52.0002L49.2884 39.9656L45.4413 28.0297L3.02434 45.8843V58.1162L45.4413 75.9707L49.2884 64.0348L18.3142 52.0002Z" fill="#A6F750"/>
<path fill-rule="evenodd" clip-rule="evenodd" d="M385.265 44.3636L339.144 24.9502L333.869 41.3182L361.362 52.0002L333.869 62.6823L339.144 79.0503L385.265 59.6368V44.3636ZM367.685 52.0002L336.711 39.9656L340.558 28.0297L382.975 45.8843V58.1162L340.558 75.9707L336.711 64.0348L367.685 52.0002Z" fill="#A6F750"/>
</svg>
